<!DOCTYPE svg PUBLIC "-//W3C//DTD SVG 1.1//EN" "http://www.w3.org/Graphics/SVG/1.1/DTD/svg11.dtd">

<!-- Uploaded to: SVG Repo, www.svgrepo.com, Transformed by: SVG Repo Mixer Tools -->
<svg height="80px" width="80px" version="1.1" id="Layer_1" xmlns="http://www.w3.org/2000/svg" xmlns:xlink="http://www.w3.org/1999/xlink" viewBox="0 0 512.00 512.00" xml:space="preserve" fill="#000000" data-darkreader-inline-fill="" style="--darkreader-inline-fill: #131313;" stroke="#000000" transform="rotate(0)">

<g id="SVGRepo_bgCarrier" stroke-width="0"/>

<g id="SVGRepo_tracerCarrier" stroke-linecap="round" stroke-linejoin="round" stroke="#CCCCCC" stroke-width="4.096"/>

<g id="SVGRepo_iconCarrier"> <g transform="translate(1 1)"> <path style="fill: rgb(14, 255, 28); --darkreader-inline-fill: #d6c227;" d="M33.133,239.64v73.387c0,10.24,7.68,18.773,17.067,18.773h21.333c0-28.16,20.48-51.2,46.08-51.2 s34.987,23.04,34.987,51.2h204.8c0-28.16,10.24-51.2,34.987-51.2c24.747,0,46.08,23.04,46.08,51.2H459.8 c9.387,0,17.067-8.533,17.067-18.773V239.64c0-10.24-7.68-18.773-17.067-18.773H50.2C40.813,220.867,33.133,229.4,33.133,239.64" data-darkreader-inline-fill=""/> <path style="fill: rgb(255, 255, 255); --darkreader-inline-fill: #c5c3c1;" d="M33.133,313.027V239.64c0-10.24,7.68-18.773,17.067-18.773H26.307 c-10.24,0-18.773,8.533-18.773,18.773v73.387c0,10.24,8.533,18.773,18.773,18.773H50.2C40.813,331.8,33.133,323.267,33.133,313.027 " data-darkreader-inline-fill=""/> <path style="fill: rgb(255, 168, 0); --darkreader-inline-fill: #d69b27;" d="M483.693,220.867H459.8c9.387,0,17.067,8.533,17.067,18.773v73.387 c0,10.24-7.68,18.773-17.067,18.773h23.893c10.24,0,18.773-8.533,18.773-18.773V239.64 C502.467,229.4,493.933,220.867,483.693,220.867" data-darkreader-inline-fill=""/> <path style="fill: rgb(254, 204, 0); --darkreader-inline-fill: #d6b427;" d="M434.2,331.8c0,28.16-17.067,51.2-38.4,51.2s-38.4-23.04-38.4-51.2s17.067-51.2,38.4-51.2 S434.2,303.64,434.2,331.8" data-darkreader-inline-fill=""/> <path style="fill: rgb(255, 168, 0); --darkreader-inline-fill: #d69b27;" d="M408.6,280.6c-2.56,0-5.12,0-7.68,0.853c18.773,3.413,33.28,24.747,33.28,50.347 s-14.507,46.933-33.28,50.347c2.56,0,5.12,0.853,7.68,0.853c28.16,0,51.2-23.04,51.2-51.2S436.76,280.6,408.6,280.6" data-darkreader-inline-fill=""/> <path style="fill: rgb(254, 204, 0); --darkreader-inline-fill: #d6b427;" d="M127,331.8c0,28.16-17.067,51.2-38.4,51.2s-38.4-23.04-38.4-51.2s17.067-51.2,38.4-51.2 S127,303.64,127,331.8" data-darkreader-inline-fill=""/> <path style="fill: rgb(255, 168, 0); --darkreader-inline-fill: #d69b27;" d="M101.4,280.6c-2.56,0-5.12,0-7.68,0.853C112.493,284.867,127,306.2,127,331.8 s-14.507,46.933-33.28,50.347c2.56,0,5.12,0.853,7.68,0.853c28.16,0,51.2-23.04,51.2-51.2S129.56,280.6,101.4,280.6" data-darkreader-inline-fill=""/> <path style="fill: rgb(254, 204, 0); --darkreader-inline-fill: #d6b427;" d="M118.467,161.133c-9.387,0-17.067,7.68-17.067,17.067v42.667h34.133V178.2 C135.533,168.813,127.853,161.133,118.467,161.133" data-darkreader-inline-fill=""/> <g> <path style="fill: rgb(255, 225, 0); --darkreader-inline-fill: #d6c227;" d="M408.6,229.4c-2.56,0-4.267-0.853-5.973-2.56l-93.867-93.867c-3.413-3.413-3.413-8.533,0-11.947 s8.533-3.413,11.947,0l93.867,93.867c3.413,3.413,3.413,8.533,0,11.947C412.867,228.547,411.16,229.4,408.6,229.4z" data-darkreader-inline-fill=""/> <path style="fill: rgb(255, 225, 0); --darkreader-inline-fill: #d6c227;" d="M297.667,229.4c-5.12,0-8.533-3.413-8.533-8.533v-34.133c0-5.12,3.413-8.533,8.533-8.533 s8.533,3.413,8.533,8.533v34.133C306.2,225.987,302.787,229.4,297.667,229.4z" data-darkreader-inline-fill=""/> <path style="fill: rgb(255, 225, 0); --darkreader-inline-fill: #d6c227;" d="M220.867,229.4c-5.12,0-8.533-3.413-8.533-8.533v-34.133c0-5.12,3.413-8.533,8.533-8.533 c5.12,0,8.533,3.413,8.533,8.533v34.133C229.4,225.987,225.987,229.4,220.867,229.4z" data-darkreader-inline-fill=""/> </g> <path d="M101.4,391.533c-33.28,0-59.733-26.453-59.733-59.733s26.453-59.733,59.733-59.733s59.733,26.453,59.733,59.733 S134.68,391.533,101.4,391.533z M101.4,289.133c-23.893,0-42.667,18.773-42.667,42.667s18.773,42.667,42.667,42.667 s42.667-18.773,42.667-42.667S125.293,289.133,101.4,289.133z"/> <path d="M118.467,331.8c0,9.387-7.68,17.067-17.067,17.067s-17.067-7.68-17.067-17.067s7.68-17.067,17.067-17.067 S118.467,322.413,118.467,331.8"/> <path d="M408.6,391.533c-33.28,0-59.733-26.453-59.733-59.733s26.453-59.733,59.733-59.733s59.733,26.453,59.733,59.733 S441.88,391.533,408.6,391.533z M408.6,289.133c-23.893,0-42.667,18.773-42.667,42.667s18.773,42.667,42.667,42.667 c23.893,0,42.667-18.773,42.667-42.667S432.493,289.133,408.6,289.133z"/> <path d="M425.667,331.8c0,9.387-7.68,17.067-17.067,17.067c-9.387,0-17.067-7.68-17.067-17.067s7.68-17.067,17.067-17.067 C417.987,314.733,425.667,322.413,425.667,331.8"/> <path d="M297.667,272.067H255c-5.12,0-8.533-3.413-8.533-8.533c0-5.12,3.413-8.533,8.533-8.533h42.667 c5.12,0,8.533,3.413,8.533,8.533C306.2,268.653,302.787,272.067,297.667,272.067z"/> <path d="M297.667,289.133c-5.12,0-8.533-3.413-8.533-8.533v-17.067c0-5.12,3.413-8.533,8.533-8.533s8.533,3.413,8.533,8.533V280.6 C306.2,285.72,302.787,289.133,297.667,289.133z"/> <path d="M502.467,280.6h-34.133c-5.12,0-8.533-3.413-8.533-8.533s3.413-8.533,8.533-8.533h34.133c5.12,0,8.533,3.413,8.533,8.533 S507.587,280.6,502.467,280.6z"/> <path d="M41.667,280.6H7.533c-5.12,0-8.533-3.413-8.533-8.533s3.413-8.533,8.533-8.533h34.133c5.12,0,8.533,3.413,8.533,8.533 S46.787,280.6,41.667,280.6z"/> <path d="M483.693,340.333h-32.427V331.8c0-23.893-18.773-42.667-42.667-42.667c-23.893,0-42.667,18.773-42.667,42.667v8.533 H144.067V331.8c0-23.893-18.773-42.667-42.667-42.667S58.733,307.907,58.733,331.8v8.533H26.307 C10.947,340.333-1,328.387-1,313.027V239.64c0-15.36,11.947-27.307,27.307-27.307h457.387c15.36,0,27.307,11.947,27.307,27.307 v73.387C511,328.387,499.053,340.333,483.693,340.333z M467.48,323.267h16.213c5.973,0,10.24-4.267,10.24-10.24V239.64 c0-5.973-4.267-10.24-10.24-10.24H26.307c-5.973,0-10.24,4.267-10.24,10.24v73.387c0,5.973,4.267,10.24,10.24,10.24H42.52 c4.267-29.013,29.013-51.2,58.88-51.2s54.613,22.187,58.88,51.2h188.587c4.267-29.013,29.013-51.2,58.88-51.2 S463.213,294.253,467.48,323.267z"/> <path d="M400.067,229.4c-2.56,0-4.267-0.853-5.973-2.56l-93.867-93.867c-3.413-3.413-3.413-8.533,0-11.947 c3.413-3.413,8.533-3.413,11.947,0l93.867,93.867c3.413,3.413,3.413,8.533,0,11.947C404.333,228.547,402.627,229.4,400.067,229.4z"/> <path d="M289.133,229.4c-5.12,0-8.533-3.413-8.533-8.533v-34.133c0-5.12,3.413-8.533,8.533-8.533c5.12,0,8.533,3.413,8.533,8.533 v34.133C297.667,225.987,294.253,229.4,289.133,229.4z"/> <path d="M212.333,229.4c-5.12,0-8.533-3.413-8.533-8.533v-34.133c0-5.12,3.413-8.533,8.533-8.533c5.12,0,8.533,3.413,8.533,8.533 v34.133C220.867,225.987,217.453,229.4,212.333,229.4z"/> <path d="M144.067,229.4h-51.2v-51.2c0-14.507,11.093-25.6,25.6-25.6s25.6,11.093,25.6,25.6V229.4z M109.933,212.333H127V178.2 c0-5.12-3.413-8.533-8.533-8.533s-8.533,3.413-8.533,8.533V212.333z"/> </g> </g>

</svg>